<svg width="59" height="65" viewBox="0 0 59 65" fill="none" xmlns="http://www.w3.org/2000/svg">
<path d="M3.51355 32.2699C3.63238 32.3809 3.79873 32.4364 4.01262 32.4364H8.34983C8.51619 32.4364 8.64293 32.3968 8.73007 32.3175C8.81721 32.2303 8.86079 32.1034 8.86079 31.9369C8.86079 31.7783 8.81721 31.6554 8.73007 31.5682C8.64293 31.481 8.51619 31.4374 8.34983 31.4374H4.53546V28.6782H8.08841C8.26269 28.6782 8.38944 28.6386 8.46865 28.5593C8.55579 28.4721 8.59936 28.3452 8.59936 28.1787C8.59936 28.0202 8.55579 27.8973 8.46865 27.8101C8.38944 27.7229 8.26269 27.6792 8.08841 27.6792H4.53546V25.0509H8.34983C8.51619 25.0509 8.64293 25.0073 8.73007 24.9201C8.81721 24.8329 8.86079 24.706 8.86079 24.5395C8.86079 24.381 8.81721 24.262 8.73007 24.1827C8.64293 24.0955 8.51619 24.0519 8.34983 24.0519H4.01262C3.79873 24.0519 3.63238 24.1114 3.51355 24.2303C3.40264 24.3413 3.34719 24.5039 3.34719 24.7179V31.7704C3.34719 31.9845 3.40264 32.151 3.51355 32.2699Z" fill="white"/>
<path d="M10.499 32.3531C10.6099 32.4641 10.7644 32.5196 10.9625 32.5196C11.1684 32.5196 11.3229 32.4641 11.4259 32.3531C11.5289 32.2421 11.5804 32.0875 11.5804 31.8893V28.7377H12.8043C13.2241 28.7377 13.5767 28.8368 13.8618 29.035C14.147 29.2253 14.3966 29.5464 14.6105 29.9984L15.6086 32.1272C15.6799 32.2778 15.775 32.3809 15.8938 32.4364C16.0126 32.4998 16.1314 32.5236 16.2503 32.5078C16.377 32.4998 16.4879 32.4602 16.583 32.3888C16.686 32.3095 16.7533 32.2065 16.785 32.0796C16.8167 31.9527 16.789 31.814 16.7018 31.6634L15.6443 29.487C15.3908 28.9795 15.0897 28.5791 14.7412 28.2858C14.5463 28.1218 14.3292 27.9937 14.0898 27.9016L16.1196 24.8487C16.2067 24.706 16.2463 24.5752 16.2384 24.4563C16.2305 24.3374 16.1829 24.2382 16.0958 24.159C16.0166 24.0717 15.9176 24.0162 15.7987 23.9925C15.6799 23.9607 15.5611 23.9687 15.4422 24.0162C15.3234 24.0638 15.2204 24.155 15.1333 24.2898L12.9233 27.703H11.5804V24.5871C11.5804 24.381 11.5249 24.2264 11.414 24.1233C11.311 24.0202 11.1605 23.9687 10.9625 23.9687C10.7644 23.9687 10.6099 24.0202 10.499 24.1233C10.396 24.2264 10.3446 24.381 10.3446 24.5871V31.8893C10.3446 32.0875 10.396 32.2421 10.499 32.3531Z" fill="white"/>
<path d="M19.6186 32.0201C20.2206 32.369 20.9455 32.5434 21.7931 32.5434C22.2763 32.5434 22.7398 32.476 23.1834 32.3413C23.627 32.2065 24.0112 32.0083 24.336 31.7466C24.4548 31.6673 24.5301 31.5722 24.5618 31.4612C24.6014 31.3423 24.6054 31.2313 24.5737 31.1282C24.5499 31.0172 24.4984 30.926 24.4192 30.8546C24.34 30.7833 24.241 30.7436 24.1221 30.7357C24.0112 30.7278 23.8845 30.7674 23.7419 30.8546C23.4567 31.0529 23.1517 31.2035 22.8269 31.3066C22.51 31.4017 22.1773 31.4493 21.8288 31.4493C21.2267 31.4493 20.7197 31.3264 20.3078 31.0806C19.8958 30.8269 19.5829 30.4622 19.369 29.9865C19.1551 29.5028 19.0482 28.9201 19.0482 28.2382C19.0482 27.5564 19.1551 26.9776 19.369 26.5019C19.5829 26.0261 19.8958 25.6654 20.3078 25.4196C20.7197 25.1659 21.2267 25.039 21.8288 25.039C22.1773 25.039 22.51 25.0866 22.8269 25.1817C23.1438 25.2769 23.4329 25.4236 23.6944 25.6218C23.8369 25.7169 23.9677 25.7605 24.0865 25.7526C24.2132 25.7447 24.3162 25.705 24.3954 25.6337C24.4747 25.5544 24.5261 25.4592 24.5499 25.3482C24.5816 25.2372 24.5737 25.1223 24.5261 25.0034C24.4865 24.8765 24.3994 24.7695 24.2647 24.6822C23.9479 24.4444 23.5716 24.262 23.1359 24.1352C22.7081 24.0083 22.2605 23.9449 21.7931 23.9449C21.1594 23.9449 20.589 24.044 20.082 24.2422C19.5829 24.4404 19.1591 24.7298 18.8105 25.1104C18.4699 25.483 18.2085 25.935 18.0263 26.4662C17.8441 26.9895 17.753 27.5801 17.753 28.2382C17.753 29.1183 17.9114 29.8834 18.2283 30.5335C18.5531 31.1758 19.0165 31.6713 19.6186 32.0201Z" fill="white"/>
<path d="M26.2228 32.3531C26.3337 32.4641 26.4882 32.5196 26.6862 32.5196C26.8922 32.5196 27.0466 32.4641 27.1496 32.3531C27.2526 32.2421 27.3041 32.0875 27.3041 31.8893V25.0866H31.9265V31.8893C31.9265 32.0875 31.978 32.2421 32.081 32.3531C32.1919 32.4641 32.3464 32.5196 32.5444 32.5196C32.7424 32.5196 32.893 32.4641 32.9959 32.3531C33.0989 32.2421 33.1504 32.0875 33.1504 31.8893V24.7179C33.1504 24.5039 33.095 24.3413 32.9841 24.2303C32.8732 24.1114 32.7108 24.0519 32.4969 24.0519H26.7337C26.5198 24.0519 26.3535 24.1114 26.2347 24.2303C26.1238 24.3413 26.0683 24.5039 26.0683 24.7179V31.8893C26.0683 32.0875 26.1198 32.2421 26.2228 32.3531Z" fill="white"/>
<path d="M35.2628 32.2699C35.3816 32.3809 35.548 32.4364 35.7618 32.4364H40.099C40.2654 32.4364 40.3922 32.3968 40.4793 32.3175C40.5664 32.2303 40.61 32.1034 40.61 31.9369C40.61 31.7783 40.5664 31.6554 40.4793 31.5682C40.3922 31.481 40.2654 31.4374 40.099 31.4374H36.2847V28.6782H39.8376C40.0119 28.6782 40.1387 28.6386 40.2179 28.5593C40.305 28.4721 40.3486 28.3452 40.3486 28.1787C40.3486 28.0202 40.305 27.8973 40.2179 27.8101C40.1387 27.7229 40.0119 27.6792 39.8376 27.6792H36.2847V25.0509H40.099C40.2654 25.0509 40.3922 25.0073 40.4793 24.9201C40.5664 24.8329 40.61 24.706 40.61 24.5395C40.61 24.381 40.5664 24.262 40.4793 24.1827C40.3922 24.0955 40.2654 24.0519 40.099 24.0519H35.7618C35.548 24.0519 35.3816 24.1114 35.2628 24.2303C35.1519 24.3413 35.0964 24.5039 35.0964 24.7179V31.7704C35.0964 31.9845 35.1519 32.151 35.2628 32.2699Z" fill="white"/>
<path fill-rule="evenodd" clip-rule="evenodd" d="M42.2482 32.3531C42.3591 32.4641 42.5136 32.5196 42.7117 32.5196C42.9176 32.5196 43.0721 32.4641 43.1751 32.3531C43.2781 32.2421 43.3296 32.0875 43.3296 31.8893V29.1777H45.5635C46.4666 29.1777 47.1637 28.9557 47.6549 28.5117C48.146 28.0598 48.3916 27.4255 48.3916 26.6089C48.3916 25.8002 48.146 25.1738 47.6549 24.7298C47.1637 24.2779 46.4666 24.0519 45.5635 24.0519H42.7236C42.5255 24.0519 42.371 24.1074 42.2601 24.2184C42.1492 24.3215 42.0938 24.4761 42.0938 24.6822V31.8893C42.0938 32.0875 42.1453 32.2421 42.2482 32.3531ZM45.3853 28.1906H43.3296V25.039H45.3853C45.9794 25.039 46.427 25.1738 46.728 25.4434C47.037 25.705 47.1915 26.0935 47.1915 26.6089C47.1915 27.1322 47.037 27.5286 46.728 27.7982C46.427 28.0598 45.9794 28.1906 45.3853 28.1906Z" fill="white"/>
<path d="M51.6956 32.3531C51.8065 32.4641 51.961 32.5196 52.159 32.5196C52.365 32.5196 52.5155 32.4641 52.6106 32.3531C52.7135 32.2421 52.765 32.0875 52.765 31.8893V25.0866H55.2842C55.4585 25.0866 55.5931 25.043 55.6882 24.9558C55.7832 24.8606 55.8308 24.7298 55.8308 24.5633C55.8308 24.3968 55.7832 24.27 55.6882 24.1827C55.5931 24.0955 55.4585 24.0519 55.2842 24.0519H49.022C48.8556 24.0519 48.7249 24.0955 48.6298 24.1827C48.5348 24.27 48.4872 24.3968 48.4872 24.5633C48.4872 24.7298 48.5348 24.8606 48.6298 24.9558C48.7249 25.043 48.8556 25.0866 49.022 25.0866H51.5411V31.8893C51.5411 32.0875 51.5926 32.2421 51.6956 32.3531Z" fill="white"/>
<path fill-rule="evenodd" clip-rule="evenodd" d="M6.8282 18.4568C4.88783 9.6394 12.6109 3.35226 20.1737 5.78466C24.1683 -1.81899 34.5564 -2.03669 38.8656 5.78466C45.298 3.37952 54.272 9.01345 52.1638 18.4482H53.3856C56.7635 18.4482 59 21.1904 59 24.2001V32.1538C59 35.1254 57.0482 38.0937 53.4005 38.0937H52.165C52.906 41.5773 52.4107 43.3553 51.0872 46.3123L54.9103 54.9783C55.935 57.2793 54.0192 59.404 51.1643 58.485L44.2012 56.1985L41.0382 63.1799C39.8926 65.682 37.0629 65.5302 35.9799 63.1799L32.7808 55.9909C30.6405 56.7794 28.5194 56.7522 26.2103 55.9909L23.007 63.2816C21.8568 65.6794 18.9743 65.4345 17.9803 63.2816L14.8128 56.2038L7.46993 58.6257C4.91502 59.4467 3.28338 56.8611 3.9476 55.3273L7.98041 46.2773C6.48326 43.2736 6.21862 41.4857 6.84202 38.0988H5.44951C3.14741 38.0988 0 36.3394 0 32.1493V24.5561C0 20.8529 2.44037 18.4568 5.44737 18.4568H6.8282ZM19.8853 7.81769C20.8297 8.2011 21.4114 8.0886 21.679 7.40015C24.5313 0.0618361 34.4737 0.565623 37.1028 6.91825C37.5997 8.11912 38.1883 8.19898 39.132 7.821C45.3472 5.33169 52.3489 11.1824 50.0288 18.4682H45.5865C37.857 6.41185 21.2055 6.49159 13.4266 18.4682H8.99604C6.56178 11.053 13.8051 5.34924 19.8853 7.81769ZM21.6789 49.145C21.4113 48.4565 20.8297 48.344 19.8853 48.7274C13.8051 51.1959 6.56174 45.4922 8.99599 38.0769H13.4265C21.2054 50.0535 37.857 50.1333 45.5864 38.0769H50.0287C52.3488 45.3627 45.3471 51.2134 39.1319 48.7241C38.1882 48.3462 37.5997 48.426 37.1027 49.6269C34.4737 55.9795 24.5312 56.4833 21.6789 49.145ZM36.0017 18.5197H26.2351C24.5916 18.5197 22.7874 18.5024 20.9992 18.4853C19.2425 18.4684 17.5013 18.4517 15.9431 18.4517C22.3222 9.32491 36.2536 8.89261 43.0481 18.4587C41.6849 18.4892 40.3193 18.4892 39.0965 18.4892C37.8737 18.4892 36.7937 18.4892 36.0017 18.5197ZM26.2788 38.1012H35.9935C36.5009 38.1012 37.1004 38.1026 37.7633 38.1041C39.3243 38.1076 41.237 38.112 43.1274 38.1012C36.3329 47.6673 22.3925 47.2195 16.0133 38.0927C17.5699 38.0927 19.3025 38.0948 21.0507 38.0969L21.0564 38.0969C22.8378 38.099 24.6352 38.1012 26.2788 38.1012ZM9.34971 48.1051C12.579 51.19 16.2963 51.9003 20.1684 50.7932C21.3 52.8475 22.2028 53.7978 24.3031 55.1927L21.1528 62.3065C20.6254 63.3049 20.2923 63.1985 19.7446 62.181L16.5796 55.0892C16.1394 54.0509 15.7567 53.7507 14.8114 54.0509L6.97984 56.5831C6.08309 56.8999 5.60839 56.4886 5.96218 55.7209L9.34971 48.1051ZM38.8215 50.7932C42.6936 51.9002 46.4109 51.19 49.6402 48.105L53.0277 55.7209C53.3815 56.4885 52.9068 56.8999 52.0101 56.583L44.1785 54.0509C43.2332 53.7506 42.8505 54.0509 42.4103 55.0892L39.2453 62.1809C38.6976 63.1984 38.3645 63.3048 37.8371 62.3064L34.6868 55.1927C36.7871 53.7978 37.6899 52.8474 38.8215 50.7932ZM2.0318 23.7267C2.0318 21.9354 3.48273 20.4832 5.27255 20.4832H53.73C55.5198 20.4832 56.9708 21.9354 56.9708 23.7267V32.8257C56.9708 34.6171 55.5198 36.0692 53.73 36.0692H5.27255C3.48273 36.0692 2.0318 34.6171 2.0318 32.8257V23.7267Z" fill="white"/>
</svg>
