<svg width="65" height="65" viewBox="0 0 65 65" fill="none" xmlns="http://www.w3.org/2000/svg">
<path fill-rule="evenodd" clip-rule="evenodd" d="M1.72661 10.8056L31.1054 0.250476C32.0283 -0.113093 32.9914 -0.0525257 33.824 0.250493L63.2357 10.8095C65.3989 11.6161 65.1452 14.3991 63.2357 15.0847L58.0543 16.9514C58.3088 17.491 58.3509 17.8068 58.34 18.3861V21.7809C58.34 22.9207 57.3186 23.8252 56.2357 23.8252H53.9837C52.9377 23.8252 51.8055 22.9455 51.8055 21.7809V19.1914L48.6249 20.3684V27.043C48.6249 33.0875 16.317 32.9967 16.317 27.043V20.349L1.72661 15.1115C-0.368171 14.2862 -0.303217 11.5288 1.72661 10.8056ZM54.0473 18.2803C54.0473 17.7117 54.5052 17.2507 55.0701 17.2507C55.6349 17.2507 56.0928 17.7117 56.0928 18.2803V21.5594H54.0473V18.2803ZM32.4691 2.11195L2.32377 12.9561L16.3054 17.8847V15.1026C16.3054 9.10024 48.6449 9.04181 48.6449 15.1026V17.8847L52.1012 16.7093C52.6842 15.9404 53.1041 15.617 53.9219 15.2993V9.88775L32.4691 2.11195ZM56.1406 10.6272L60.2317 12.1398L62.467 12.9231L56.1406 15.2931V10.6272ZM46.4599 15.2245C41.8133 12.1947 23.0893 12.2688 18.4701 15.2245V24.5968C24.2296 22.2316 39.7901 21.9352 46.4599 24.5968V15.2245ZM46.2457 27.0462C45.2699 28.0093 40.062 29.1573 32.434 29.1573C24.806 29.1573 19.7144 27.9625 18.6223 27.0462C19.6679 26.1849 24.806 24.9351 32.434 24.9351C40.062 24.9351 45.084 26.1147 46.2457 27.0462Z" fill="white"/>
<path fill-rule="evenodd" clip-rule="evenodd" d="M3.39953 33.5487C25.9068 36.3521 38.66 36.3808 61.5451 33.5487C66.2735 33.5487 66.0281 57.4028 61.5451 57.4028C52.9674 56.2212 48.2929 55.6218 41.4363 55.5683C42.0457 57.1022 42.5017 58.2401 43.2388 59.9202C44.557 62.9245 41.3524 64.1373 39.7752 62.8406C38.8101 66.1479 35.8444 65.0725 35.2412 63.3391L33.5698 59.1133L31.8482 63.3391C31.2774 64.9266 28.9453 66.2365 26.9724 63.0219C24.1221 64.5825 22.5701 62.3161 23.5603 59.9532C23.991 58.9256 24.2755 58.2515 24.5044 57.7093L24.5048 57.7081C24.8285 56.9412 25.0411 56.4376 25.3991 55.5689C20.653 55.5689 11.1632 56.5975 3.11322 57.5814C-0.709948 57.5814 -1.45492 33.5487 3.39953 33.5487ZM4.47935 45.4994C4.47935 50.5337 3.82391 53.7348 3.38685 54.6147C3.05919 53.8173 2.29435 50.5337 2.29435 45.4994C2.29435 40.4651 3.03188 37.0165 3.38685 36.384C3.76928 37.044 4.47935 40.4651 4.47935 45.4994ZM31.9557 57.2599C30.1251 56.7845 29.2812 56.3543 28.2291 55.1424L25.6911 61.2457L27.0292 60.5714C27.9609 60.1024 28.6525 60.2871 29.0196 61.1398L29.6971 62.7742L31.9557 57.2599ZM38.8864 55.1423C37.8343 56.3543 36.9904 56.7845 35.1598 57.2599L37.4184 62.7742L38.0959 61.1398C38.463 60.2871 39.1546 60.1024 40.0863 60.5713L41.4244 61.2457L38.8864 55.1423ZM35.8709 37.9197C33.0167 37.946 31.5962 37.9471 28.5416 37.9196C29.0316 39.947 29.1162 40.9996 29.2511 43.5213C31.1671 41.9569 34.7398 41.7092 36.6373 42.8869C36.4762 40.4324 36.2784 39.4898 35.8709 37.9197ZM38.9305 49.7852C38.9305 52.7552 36.5308 55.1629 33.5705 55.1629C30.6103 55.1629 28.2105 52.7552 28.2105 49.7852C28.2105 46.8153 30.6103 44.4076 33.5705 44.4076C36.5308 44.4076 38.9305 46.8153 38.9305 49.7852ZM26.1499 37.8051C17.8509 37.5956 13.3995 37.1952 5.70769 36.1369C7.10567 43.3639 6.99742 47.4631 5.70774 54.8348C13.8175 53.6984 18.4167 53.3305 26.6842 53.0852C25.6883 50.1593 25.706 48.5749 27.0458 45.9289C27.1026 41.8335 26.6149 39.7815 26.2935 38.4296C26.2399 38.204 26.1909 37.998 26.1499 37.8051ZM61.3535 35.9078C53.6617 36.9661 47.3036 37.4658 38.2383 37.8688C38.2744 38.0885 38.3182 38.3256 38.3662 38.5847C38.6005 39.851 38.9327 41.6456 38.9327 44.5292C41.263 46.6343 41.5459 50.2028 40.431 53.0852C49.1507 53.583 53.2279 53.9953 61.3377 55.1317C62.927 49.515 63.0425 41.1077 61.3535 35.9078Z" fill="white"/>
</svg>
