<svg width="65" height="65" viewBox="0 0 65 65" fill="none" xmlns="http://www.w3.org/2000/svg">
<path d="M59.3635 3.03727C41.8407 17.2149 27.2404 25.5031 1.48684 29.4525C-0.863769 29.813 -0.0414626 32.7382 1.62832 32.5176C24.8306 29.4525 45.3845 19.0567 60.7429 6.08538L59.1223 12.7491C58.5773 14.9976 61.5551 15.5367 62.0764 13.6376L64.8521 2.37946C65.1227 1.17997 64.8521 0.0584547 63.499 0H51.6181C49.6798 0 49.8165 3.03727 51.6181 3.03727H59.3635Z" fill="white"/>
<path fill-rule="evenodd" clip-rule="evenodd" d="M1.53139 61.9671H2.89481V40.2847C2.89481 38.9014 3.50392 38.3129 5.02278 38.3129H18.8976C20.3648 38.3129 20.7494 39.2576 20.7494 40.3857V61.9671H23.662V31.1284C23.662 29.9861 24.2472 29.4689 25.5498 29.4689H39.5073C40.9549 29.4689 41.3713 30.2037 41.3713 31.2699V61.9749H44.2953V22.3479C44.2953 21.2625 44.8341 20.6093 46.0848 20.6093H60.2821C61.7894 20.6093 62.1321 21.5429 62.1321 22.3479V61.9798H63.5635C65.5636 61.9798 65.3922 65 63.5635 65H1.53139C-0.450003 65 -0.570045 61.9671 1.53139 61.9671ZM5.93607 41.3578H17.7041V61.9688H5.93607V41.3578ZM38.4596 32.4884H26.6916V61.9688H38.4596V32.4884ZM47.4471 23.619H59.2151V61.9611H47.4471V23.619Z" fill="white"/>
</svg>
