<svg width="65" height="65" viewBox="0 0 65 65" fill="none" xmlns="http://www.w3.org/2000/svg">
<path fill-rule="evenodd" clip-rule="evenodd" d="M46.8304 6.50249C46.8304 3.19946 49.4367 0.223537 52.9463 0H53.8903C57.3896 0.118915 60.163 3.3622 60.163 6.50249V9.34796C59.9771 11.4981 59.5397 12.4063 58.5207 13.8184C62.4338 14.4817 65 17.5986 65 21.5984V27.736C65 29.2736 62.8407 29.1826 62.8407 27.736V21.5984C62.8407 19.082 61.083 16.0851 57.4583 15.9685H49.7248C48.5752 15.9982 48.0484 16.1039 47.3423 16.4837C45.6265 17.1785 44.9693 15.2886 45.9521 14.5774C46.8801 14.1594 47.421 13.9654 48.4932 13.8184C47.3439 12.3816 47.0103 11.4302 46.8304 9.55344V6.50249ZM49.0887 6.59249C49.0887 4.20367 51.0284 2.26715 53.4213 2.26715H53.5447C55.9376 2.26715 57.8773 4.20367 57.8773 6.59249V9.34896C57.8773 11.7378 55.9376 13.6743 53.5447 13.6743H53.4213C51.0284 13.6743 49.0887 11.7378 49.0887 9.34896V6.59249Z" fill="white"/>
<path fill-rule="evenodd" clip-rule="evenodd" d="M10.8758 0.0190388C7.8053 0.0190388 4.83392 3.23506 4.83392 6.51006V9.52647C4.83392 11.2103 5.53004 12.7161 6.49529 13.8997C2.99514 14.1721 0 17.5298 0 21.126V27.9982C0 29.2734 2.15866 29.2616 2.15866 27.9982V21.6322C2.15866 18.5703 4.59711 16.0685 7.499 16.0685H15.2658C17.9533 16.0685 19.9769 17.728 20.7015 20.129C17.6958 20.4708 15.1163 23.5164 15.1163 27.1713V29.1112C15.1163 31.4191 16.1701 33.0801 17.022 33.9126C15.1158 34.0729 13.74 34.8119 12.4855 36.2284C11.813 36.0576 11.2353 36.0634 10.5308 36.1715C7.43971 36.6455 4.81347 39.1576 4.81347 43.1679V45.1292C4.81347 47.4633 5.54615 48.7435 6.49876 49.9939C2.93254 50.6066 0.0113792 53.4234 0.0113792 57.5354V63.9019C0.0113792 65.3752 2.24223 65.3258 2.24223 63.9019V57.3415C2.24223 54.5998 4.63057 52.1788 7.72746 52.1788H15.5524C18.5416 52.1788 20.9478 54.678 20.9478 57.7879V63.8893C20.9478 65.301 23.1032 65.3629 23.1032 63.8893V57.7879C23.1032 54.7783 25.5877 52.1788 28.4448 52.1788H36.1295C39.5855 52.1788 41.8872 54.5738 41.8872 58.0813V63.8893C41.8872 65.3401 44.0457 65.3609 44.0457 63.8893V58.0813C44.0457 54.2412 46.3933 52.1788 50.4323 52.1788H57.3706C60.0907 52.1788 62.8116 54.338 62.8116 57.6127V63.8893C62.8116 65.3401 64.9757 65.4 64.9757 63.8893V57.6127C64.9757 52.8465 61.3877 50.0284 57.3706 49.8893H53.4004C50.7591 49.7884 48.9953 47.765 48.9953 45.1222V43.1679C48.9953 39.9957 51.4279 38.3695 53.5109 38.3695C55.4547 38.3695 57.8907 39.8149 57.8907 43.1679V45.5281C57.8907 46.9963 60.1648 46.916 60.1648 45.5281V42.457C60.1648 39.8057 57.6415 36.107 53.4905 36.107C49.3395 36.107 46.8214 39.7476 46.8214 42.457V45.5264C46.8214 47.4654 47.5823 48.926 48.499 50.0284C45.9661 50.3587 44.2662 51.6246 42.962 53.5793C41.5631 51.3325 39.3895 49.9186 36.1295 49.9186H32.3998C30.305 49.9186 28.0663 48.1053 28.0663 45.4346V42.6551C28.0663 40.6391 30.0055 38.3675 32.4589 38.3675C34.7527 38.3675 36.9417 40.3208 36.9417 42.6551V45.5263C36.9417 46.9647 39.1914 46.9925 39.1914 45.5263V43.1272C39.1914 40.8203 38.2901 38.5703 35.9189 37.0302C36.6834 36.4724 37.5625 36.107 38.8076 36.107H42.8263C46.6487 36.0446 49.6229 33.0007 49.6229 29.2906V27.0422C49.7583 23.3435 46.8016 20.1294 44.0341 20.1294C43.6631 16.8952 40.2061 13.9006 37.4555 13.9006C38.4765 12.9406 39.2174 10.5204 39.2174 9.22052V6.75743C39.2174 3.76775 36.7061 0.0140275 32.8096 0.0140275H31.9893C28.7053 0.0140275 25.7661 3.39404 25.7661 6.75743V9.22052C25.7661 10.5646 26.239 12.444 27.5562 13.9306C26.8359 13.89 24.7278 14.4504 24.2473 15.1194C23.4862 16.1792 24.6457 17.4218 25.4778 16.9855C26.4861 16.4568 27.2996 16.2121 28.0676 16.0842H36.5287C38.8455 16.0842 41.1613 17.5536 41.6334 20.142C39.7285 20.1294 36.2553 22.8012 36.2553 26.5963V29.2906C36.2553 30.9776 36.5685 32.1552 37.9459 33.9365C35.9189 33.9365 34.0198 35.2464 33.4063 36.107H31.8936C28.4448 36.107 25.7907 39.2558 25.7907 42.6551V45.4346C25.7907 47.8489 26.9338 49.2915 27.4525 49.9418C25.7448 49.9186 23.1032 51.5268 22.0238 53.4857C20.8781 51.7259 19.146 49.9336 15.3904 49.9336H11.3887C9.49358 49.9336 7.04211 47.9517 7.04211 45.1292V43.1679C7.04211 40.5446 8.64652 38.6962 10.5308 38.4052C11.3236 38.2541 11.9709 38.2583 12.4855 38.4052C14.7381 38.7797 15.9961 41.4195 15.9961 42.5189V45.404C15.9961 46.9107 18.152 46.9107 18.152 45.404V42.5189C18.152 39.8381 16.11 37.5096 14.9897 37.1009C16.1309 36.1264 17.2294 36.0123 18.9161 36.0416C19.4447 36.0508 20.036 36.0481 20.7024 36.045C21.0659 36.0433 21.4521 36.0416 21.8632 36.0416C25.433 36.0416 28.5599 33.1842 28.5599 29.1187V26.7048C28.5599 21.9151 24.7079 20.2645 23.0946 20.129C22.8572 17.6672 19.9631 13.9113 16.5053 13.9113C16.9517 13.2908 18.1704 11.2407 18.1704 9.52647V6.51006C18.1704 4.49553 16.7249 0.379809 12.0329 0.0190651C11.8295 -0.00316127 11.5096 0.00515312 11.226 0.012526C11.097 0.0158801 10.9755 0.0190388 10.8758 0.0190388ZM32.3854 2.28659C29.9926 2.28659 28.0528 4.22311 28.0528 6.61193V9.37461C28.0528 11.7634 29.9926 13.7 32.3854 13.7H32.608C35.0008 13.7 36.9406 11.7634 36.9406 9.37461V6.61193C36.9406 4.22311 35.0008 2.28659 32.608 2.28659H32.3854ZM7.07271 6.61193C7.07271 4.22311 9.01248 2.28659 11.4053 2.28659H11.6279C14.0208 2.28659 15.9605 4.22311 15.9605 6.61193V9.37461C15.9605 11.7634 14.0208 13.7 11.6279 13.7H11.4053C9.01248 13.7 7.07271 11.7634 7.07271 9.37461V6.61193ZM21.8465 22.3137C19.4537 22.3137 17.5139 24.2502 17.5139 26.639V29.4017C17.5139 31.7905 19.4537 33.7271 21.8465 33.7271H22.0692C24.462 33.7271 26.4017 31.7905 26.4017 29.4017V26.639C26.4017 24.2502 24.462 22.3137 22.0692 22.3137H21.8465ZM38.4734 26.6114C38.4734 24.2226 40.4132 22.2861 42.806 22.2861H43.0286C45.4214 22.2861 47.3612 24.2226 47.3612 26.6114V29.3741C47.3612 31.7629 45.4214 33.6994 43.0286 33.6994H42.806C40.4132 33.6994 38.4734 31.7629 38.4734 29.3741V26.6114Z" fill="white"/>
</svg>
