<svg width="14" height="32" viewBox="0 0 14 32" fill="none" xmlns="http://www.w3.org/2000/svg">
<path d="M3.9969 1.71362H5.08932V0H3.9969V1.71362Z" fill="white"/>
<path d="M5.65956 1.71362V0H6.79343V1.71362H5.65956Z" fill="white"/>
<path d="M7.3703 1.71362V0H8.64341V1.71362H7.3703Z" fill="white"/>
<path d="M9.18713 1.71362V0H10.3401V1.71362H9.18713Z" fill="white"/>
<path d="M10.9017 1.71362V0H10.9178C11.3789 0 11.8679 0.569916 11.951 0.994804L12.401 4.125H1.715L2.08523 0.994804C2.15695 0.494682 2.65221 0 3.23661 0H3.35514V1.58273C3.35514 1.91407 3.87101 2.41565 4.18237 2.41565H9.98364C10.3401 2.41565 10.9017 2.04688 10.9017 1.71362Z" fill="white"/>
<path d="M7.02502 16.2172C7.61971 16.2172 8.10181 15.7351 8.10181 15.1404C8.10181 14.5457 7.61971 14.0636 7.02502 14.0636C6.43034 14.0636 5.94824 14.5457 5.94824 15.1404C5.94824 15.7351 6.43034 16.2172 7.02502 16.2172Z" fill="white"/>
<path fill-rule="evenodd" clip-rule="evenodd" d="M2 4.81459C0.890625 4.81459 0 5.68945 0 6.97803V12.0468C0 13.3506 0.504631 14.0456 1.11794 14.8904C1.19861 15.0015 1.28113 15.1152 1.36463 15.2331V23.9978C1.36463 26.7987 4.47678 29.1928 6.36696 29.1928V31.3477C6.36696 32.1888 7.63306 32.2611 7.63306 31.3477V29.1928C10.6808 28.7522 12.6211 26.0933 12.6211 24V15.2331C12.7219 15.0891 12.8219 14.9519 12.9192 14.8184C13.5073 14.0119 14.0001 13.3362 14.0001 12.0468V6.97803C14.0087 5.91183 13.5547 4.83356 11.9961 4.83356L3.00781 4.81459H2ZM5.22656 12.1586C5.22656 11.1778 6.02171 10.3826 7.00256 10.3826C7.98342 10.3826 8.77856 11.1778 8.77856 12.1586V15.145C8.77856 16.1258 7.98342 16.921 7.00256 16.921C6.02171 16.921 5.22656 16.1258 5.22656 15.145V12.1586Z" fill="white"/>
</svg>
