<svg width="58" height="67" viewBox="0 0 58 67" fill="none" xmlns="http://www.w3.org/2000/svg">
<path d="M30.3433 7.53052C30.3433 8.08281 29.8955 8.53052 29.3433 8.53052H29.2727C28.7204 8.53052 28.2727 8.08281 28.2727 7.53052V1.54578C28.2727 0.9935 28.7204 0.545776 29.2727 0.545776H29.3433C29.8955 0.545776 30.3433 0.9935 30.3433 1.54578V7.53052Z" fill="white"/>
<path d="M16.4205 4.66537C16.1443 4.1871 15.5327 4.02325 15.0544 4.29942L14.9933 4.33472C14.515 4.61089 14.3512 5.22249 14.6273 5.70076L17.6199 10.8835C17.8961 11.3618 18.5077 11.5257 18.986 11.2495L19.0471 11.2142C19.5254 10.938 19.6892 10.3264 19.4131 9.84816L16.4205 4.66537Z" fill="white"/>
<path fill-rule="evenodd" clip-rule="evenodd" d="M36.6079 28.267C36.6079 31.7547 33.7806 34.582 30.293 34.582C26.8053 34.582 23.978 31.7547 23.978 28.267C23.978 24.7794 26.8053 21.9521 30.293 21.9521C33.7806 21.9521 36.6079 24.7794 36.6079 28.267ZM34.5704 28.267C34.5704 30.6293 32.6554 32.5444 30.2931 32.5444C27.9308 32.5444 26.0157 30.6293 26.0157 28.267C26.0157 25.9047 27.9308 23.9897 30.2931 23.9897C32.6554 23.9897 34.5704 25.9047 34.5704 28.267Z" fill="white"/>
<path fill-rule="evenodd" clip-rule="evenodd" d="M25.3869 18.2032C24.9283 17.6015 24.444 16.9659 23.4635 17.6916C21.6958 19.0001 21.0483 19.755 19.9823 21.0559C19.2058 22.0036 19.8046 22.4142 20.388 22.8142C20.9206 23.1795 21.4403 23.5359 20.8892 24.2842C20.4056 24.9408 19.89 24.7565 19.4194 24.5884C18.8654 24.3904 18.3739 24.2148 18.0707 25.46C17.5216 27.7146 17.7058 28.764 18.0056 30.4723L18.0251 30.5829C18.1875 31.5095 18.8302 31.4155 19.4737 31.3215C20.0627 31.2354 20.6522 31.1492 20.8748 31.8452C21.0654 32.7284 20.5648 33.0311 20.1052 33.3091C19.5648 33.6358 19.081 33.9284 19.8434 35.09C20.8826 36.6736 21.7198 37.361 23.2162 38.5532C24.0989 39.2564 24.5602 38.6145 24.9863 38.0215C25.3351 37.5361 25.6603 37.0835 26.1738 37.4285C26.9635 37.959 26.8435 38.5495 26.7376 39.0708C26.6189 39.6547 26.5179 40.1519 27.7324 40.3811C29.6915 40.7507 30.7575 40.7053 32.6351 40.3811C33.6278 40.2096 33.5236 39.5711 33.4193 38.9326C33.3264 38.3634 33.2335 37.7943 33.9178 37.5562C34.5459 37.3377 34.8661 37.7746 35.1942 38.2224C35.6245 38.8098 36.0685 39.4158 37.2389 38.5861C38.773 37.4986 39.2963 37.1089 40.4731 35.3605C41.1113 34.4123 40.5624 33.9297 40.0488 33.4782C39.6154 33.0971 39.2071 32.7381 39.5589 32.1402C39.9811 31.4227 40.4857 31.5653 40.9692 31.7021C41.5327 31.8614 42.0677 32.0127 42.4105 30.785C42.7812 28.9658 42.8409 27.5187 42.4105 25.6953C42.2124 24.856 41.5739 24.937 40.963 25.0145C40.506 25.0724 40.0645 25.1284 39.8345 24.7957C39.292 24.0109 39.8049 23.6303 40.3322 23.2391C40.9432 22.7858 41.5736 22.3182 40.6039 21.1908C40.3917 20.9441 40.2029 20.7186 40.0264 20.5078C39.2379 19.5658 38.6927 18.9145 37.3851 17.9564C36.5063 17.3125 36.0792 17.852 35.6626 18.3782C35.3204 18.8103 34.9854 19.2335 34.4133 18.9852C33.6945 18.6733 33.7554 18.1121 33.8157 17.5561C33.8888 16.8822 33.9611 16.216 32.6427 16.011C30.9031 15.7406 29.9136 15.7079 28.1193 16.011C26.8967 16.2175 26.9986 16.8865 27.0994 17.5473C27.1788 18.0685 27.2575 18.5846 26.6849 18.8647C26.1066 19.1476 25.755 18.6863 25.3869 18.2032ZM29.2823 17.8397C29.3521 20.6472 26.1849 22.0014 23.9274 20.0322L22.3112 21.5699C24.1816 23.7584 23.0512 26.841 19.8802 26.841V29.1639C22.9169 29.1639 24.0696 32.3872 22.0567 34.5199L23.5845 36.1406C26.017 34.2786 28.8865 35.4649 28.8865 38.5484H31.194C31.194 35.4201 34.9143 34.5136 36.5885 36.3721L38.1783 34.8981C36.2014 32.4319 37.7234 29.5893 40.6171 29.5267V27.25C37.5555 27.25 36.47 23.6018 38.4074 21.9001L36.8734 20.2812C34.8919 22.0573 31.5796 21.0612 31.5796 17.8397H29.2823Z" fill="white"/>
<path fill-rule="evenodd" clip-rule="evenodd" d="M31.3336 11.0695C42.9291 11.0695 47.8385 19.7719 47.0871 28.5504L50.5308 36.2669C51.2334 37.8746 50.1373 39.2374 47.583 39.2374V43.0724C47.583 45.3942 46.4246 47.2166 43.6286 47.2166H41.263C40.3675 47.2166 40.3675 47.6218 40.3675 48.5895V54.5598C40.3675 55.5068 40.0954 55.9429 39.3407 56.0075C39.3407 57.0744 39.1761 57.864 38.7009 58.5579C39.9775 60.4452 39.07 62.8732 36.8812 63.2024C36.3828 65.1479 35.0981 66.5717 32.2617 66.5716L28.2664 66.5717C25.2684 66.5717 23.8742 65.4221 23.1935 63.2078C21.1314 62.6846 20.1532 60.6691 21.3929 58.5618C20.8825 57.9502 20.8825 57.0169 20.8825 55.9767C20.5036 55.9767 19.9781 55.5449 19.9781 54.3293V51.571C20.0534 46.9149 18.4166 44.3484 16.6379 41.5593C14.6418 38.4295 12.4669 35.0192 12.3315 28.061C12.3315 18.1663 20.7594 11.0695 31.3336 11.0695ZM22.9438 56.7513C22.9438 56.323 23.291 55.9759 23.7192 55.9759H36.4849C36.9131 55.9759 37.2603 56.323 37.2603 56.7513C37.2603 57.1795 36.9131 57.5267 36.4849 57.5267H23.7192C23.291 57.5267 22.9438 57.1795 22.9438 56.7513ZM23.7192 59.59C23.291 59.59 22.9438 59.9372 22.9438 60.3654C22.9438 60.7937 23.291 61.1408 23.7192 61.1408H36.4849C36.9131 61.1408 37.2603 60.7937 37.2603 60.3654C37.2603 59.9372 36.9131 59.59 36.4849 59.59H23.7192ZM25.397 63.2042H34.6782C34.197 64.0915 33.6353 64.501 32.6235 64.501H27.2524C26.5688 64.501 25.7541 63.8725 25.397 63.2042ZM44.9553 28.9344C45.8234 18.215 39.4033 13.1556 31.5376 13.1556C23.127 13.1556 14.4295 18.1849 14.4295 28.5469C14.4295 33.5225 16.3273 36.7064 18.2281 39.8952C20.1643 43.1434 22.1035 46.3967 22.0435 51.5541V53.8116H38.2787V48.5508C38.2787 46.2117 39.1592 45.1673 41.2344 45.1673H43.7545C44.7688 45.1673 45.5102 44.4497 45.5102 43.561V38.8946C45.5102 37.6119 45.6026 37.0395 48.4773 37.0395L44.9553 28.9344Z" fill="white"/>
<path d="M4.47401 43.3076C4.19631 42.8302 4.35819 42.2181 4.83558 41.9404L10.0087 38.9311C10.4861 38.6534 11.0983 38.8153 11.376 39.2927L11.4114 39.3537C11.6891 39.8311 11.5273 40.4432 11.0499 40.7209L5.87672 43.7302C5.39933 44.0079 4.7872 43.846 4.50951 43.3686L4.47401 43.3076Z" fill="white"/>
<path d="M1.6582 28.0016C1.10592 28.0016 0.658203 28.4494 0.658203 29.0016V29.0722C0.658203 29.6245 1.10592 30.0722 1.6582 30.0722H7.64294C8.19522 30.0722 8.64294 29.6245 8.64294 29.0722V29.0016C8.64294 28.4494 8.19522 28.0016 7.64294 28.0016H1.6582Z" fill="white"/>
<path d="M4.53097 14.7186C4.80538 14.2393 5.41637 14.0732 5.89566 14.3476L11.0894 17.3212C11.5687 17.5956 11.7348 18.2066 11.4604 18.6859L11.4253 18.7471C11.1509 19.2264 10.5399 19.3925 10.0606 19.1181L4.86687 16.1445C4.38758 15.8701 4.22149 15.2592 4.4959 14.7799L4.53097 14.7186Z" fill="white"/>
<path d="M57.8765 29.0016C57.8765 28.4494 57.4287 28.0016 56.8765 28.0016H50.8917C50.3394 28.0016 49.8917 28.4494 49.8917 29.0016V29.0722C49.8917 29.6245 50.3394 30.0722 50.8917 30.0722H56.8765C57.4287 30.0722 57.8765 29.6245 57.8765 29.0722V29.0016Z" fill="white"/>
<path d="M52.639 14.3476C53.1183 14.0732 53.7293 14.2393 54.0037 14.7186L54.0388 14.7799C54.3132 15.2592 54.1471 15.8701 53.6678 16.1445L48.4741 19.1181C47.9948 19.3925 47.3838 19.2264 47.1094 18.7471L47.0743 18.6859C46.7999 18.2066 46.966 17.5956 47.4453 17.3212L52.639 14.3476Z" fill="white"/>
<path d="M43.4803 4.29942C43.002 4.02325 42.3904 4.1871 42.1142 4.66537L39.1216 9.84816C38.8454 10.3264 39.0093 10.938 39.4875 11.2142L39.5487 11.2495C40.027 11.5257 40.6386 11.3618 40.9147 10.8835L43.9073 5.70076C44.1835 5.22249 44.0197 4.61089 43.5414 4.33472L43.4803 4.29942Z" fill="white"/>
</svg>
