<svg width="54" height="66" viewBox="0 0 54 66" fill="none" xmlns="http://www.w3.org/2000/svg">
<path fill-rule="evenodd" clip-rule="evenodd" d="M2.87763 32.372C1.61783 31.9085 0.847385 32.6592 0.8474 34.0424L0.847168 55.9661C0.879806 57.6578 1.65142 57.9334 2.84727 58.3605L2.85673 58.3638C2.94941 58.397 3.04463 58.431 3.14223 58.4667L23.6101 65.764H30.2191L51.9369 58.0513C52.9934 57.6467 53.1231 56.9344 53.1231 55.9661V34.0424C53.1231 32.5453 52.2099 31.9914 50.7485 32.4818L48.9197 33.1335C45.5214 27.9338 42.477 26.1435 35.9021 24.0997C39.0243 20.9339 40.5791 17.9533 40.5791 14.0161C40.5791 6.6118 35.2101 0.24465 26.9906 0.24465C18.8421 0.0443398 13.3299 7.09173 13.3299 14.0161C13.3299 17.9785 15.4068 21.6411 18.0875 24.0919C10.9083 26.3981 8.16179 28.4401 5.06433 33.1291L2.87763 32.372ZM27.028 24.7745C33.1384 24.7745 38.0919 19.8211 38.0919 13.7107C38.0919 7.6003 33.1384 2.64684 27.028 2.64684C20.9176 2.64684 15.9642 7.6003 15.9642 13.7107C15.9642 19.8211 20.9176 24.7745 27.028 24.7745ZM25.564 42.5524H28.4414V63.3037H25.564V42.5524ZM50.5655 35.3314L31.0096 42.2502V62.6492L50.5655 55.7822V35.3314ZM23.0331 42.2502L3.47719 35.3314V55.7822L23.0331 62.6493V42.2502ZM32.762 26.16C28.3443 27.7645 25.9726 27.8009 21.2366 26.1599C13.8742 27.4453 11.1451 29.3986 7.65547 34.0853L24.4465 40.0728H29.649L46.4533 34.0051C43.0473 29.1224 39.824 27.6134 32.762 26.16Z" fill="white"/>
</svg>
