<svg width="63" height="62" viewBox="0 0 63 62" fill="none" xmlns="http://www.w3.org/2000/svg">
<path d="M19.2788 8.82648L5.07959 23.0254L6.62923 24.5279L20.33 10.885L26.5202 17.0712C27.2124 17.752 27.814 17.7794 28.5789 17.0712L39.9155 5.72857L48.1616 13.9786C48.8921 14.7247 49.4624 14.7051 50.2397 13.9786L60.5405 3.66215V6.24503H62.6086V1.27058C62.6086 0.271545 62.271 0.0439453 61.2903 0.0439453H56.4239V2.11765H58.9905L49.2124 11.9122L40.9531 3.66767C40.2163 2.91217 39.6421 2.91998 38.8899 3.66767L27.551 14.9873L21.3392 8.82648C20.6499 8.12702 20.0054 8.11139 19.2788 8.82648Z" fill="white"/>
<path fill-rule="evenodd" clip-rule="evenodd" d="M47.1328 33.8406V18.8032C47.1328 17.9122 47.3843 17.588 48.3408 17.588H52.1801C53.2554 17.588 53.3286 18.0801 53.3286 18.7222V33.6382C53.3286 34.8067 53.1929 35.117 52.0036 35.117H48.347C47.3999 35.117 47.1328 34.9083 47.1328 33.8406ZM49.2041 19.6415H51.2671V33.053H49.2041V19.6415Z" fill="white"/>
<path d="M5.375 41.0494L7.44167 40.6463L7.88274 42.7254L5.78922 43.157L5.375 41.0494Z" fill="white"/>
<path fill-rule="evenodd" clip-rule="evenodd" d="M2.27968 37.4379L8.86842 36.0301C10.037 35.7704 10.6912 36.0301 10.9025 36.9226L11.5131 39.6465C14.0625 38.1102 15.9778 37.4107 18.9551 37.4107C22.4205 37.4107 24.8485 38.6407 31.2202 42.0871C32.0258 42.4317 32.4713 42.4677 33.2326 42.0871L42.1259 37.569C44.4622 36.4508 47.398 37.1808 49.2667 39.3815L55.899 36.0301C60.4421 33.8008 65.0123 39.6246 61.33 42.182L39.6469 56.6453C37.149 57.7047 35.5012 57.954 31.935 57.666C29.8311 57.4489 27.9822 57.2062 26.3262 56.9889C21.4557 56.3495 18.2543 55.9293 15.1488 57.0249L15.417 58.5483C15.6117 59.5473 15.417 60.103 14.2655 60.3647L7.56316 61.7962C6.17446 62.1105 5.52022 61.8954 5.2458 60.7837L0.866179 39.8849C0.84255 39.7515 0.816273 39.6233 0.791035 39.5002C0.588918 38.5145 0.453535 37.8542 2.27968 37.4379ZM3.06086 39.4977L8.86847 38.3223L13.1063 58.3187L7.32096 59.5949L3.06086 39.4977ZM29.1027 43.4976C21.3698 38.9721 18.1731 37.9909 11.9259 42.0687L14.6687 54.8166C17.4795 53.8232 21.1453 53.9018 32.5655 55.4907C34.3942 55.8421 35.707 56.0003 37.6082 55.1068L59.4064 40.7784C60.9633 39.7175 60.7166 39.2652 59.9222 38.4149C59.1278 37.5647 57.7838 37.5207 56.4113 38.21L49.9806 41.4436C49.98 42.8883 49.5948 43.4786 48.4393 44.2641L35.707 51.7406C33.6979 52.7245 31.9096 53.0568 29.3458 52.5211L18.4102 49.9135L18.8068 47.744L29.2249 50.1968C31.2133 50.7463 33.144 50.6197 34.9012 49.6897L46.5008 42.8509C48.4393 41.6773 48.0258 41.225 47.0069 40.1219C45.7508 38.8815 44.2313 38.9557 41.7133 40.2646L35.2633 43.6348C32.9699 44.7642 31.9729 44.875 29.1027 43.4976Z" fill="white"/>
<path fill-rule="evenodd" clip-rule="evenodd" d="M37.8491 23.8938V33.8372C37.8491 34.591 38.1162 35.117 39.0633 35.117H42.7199C43.9092 35.117 44.0449 34.6431 44.0449 33.8181V23.964C44.0449 23.5107 43.9717 22.7403 42.8964 22.7403H39.0571C38.1006 22.7403 37.8491 23.2647 37.8491 23.8938ZM41.9834 24.8015H39.9204V33.0543H41.9834V24.8015Z" fill="white"/>
<path fill-rule="evenodd" clip-rule="evenodd" d="M28.5684 33.7797V20.7901C28.5684 20.0035 28.8198 19.6417 29.7764 19.6417H33.6156C34.6909 19.6416 34.7641 20.2871 34.7641 20.8539V33.6456C34.7641 34.6772 34.6284 35.117 33.4391 35.117H29.7826C28.8355 35.117 28.5684 34.7223 28.5684 33.7797ZM30.6397 21.709H32.7026V33.0489H30.6397V21.709Z" fill="white"/>
<path fill-rule="evenodd" clip-rule="evenodd" d="M19.2925 27.9863V33.9677C19.2925 34.8543 19.809 35.117 20.5067 35.117H24.1633C25.3525 35.117 25.4882 34.7261 25.4882 33.9891V27.9863C25.4882 27.3561 25.2351 26.8509 24.3398 26.8509H20.5005C19.5439 26.8509 19.2925 27.308 19.2925 27.9863ZM23.4268 28.9346H21.3638V33.0487H23.4268V28.9346Z" fill="white"/>
</svg>
