<svg width="58" height="66" viewBox="0 0 58 66" fill="none" xmlns="http://www.w3.org/2000/svg">
<path fill-rule="evenodd" clip-rule="evenodd" d="M27.2285 -0.00927734C31.5119 -0.00932341 33.7939 4.53623 31.9689 7.98051C34.646 7.98051 36.6145 8.77479 37.6371 11.0821L38.934 14.5704C39.8944 17.0783 40.1227 18.5198 39.0516 20.7484C42.7659 27.2749 48.6101 32.4682 56.195 34.688C58.1783 35.043 58.21 38.0946 55.011 37.389C52.0794 37.389 50.9898 39.0461 49.8367 40.7997C48.5409 42.7704 47.1649 44.863 43.0044 44.863C40.9789 44.863 40.2705 44.5342 39.566 44.2072C38.8691 43.8837 38.1759 43.5619 36.2149 43.5619C36.4084 45.017 36.4777 45.8332 36.4933 47.2921C36.4906 47.925 36.4265 48.265 36.2272 48.8482H38.0147C39.3202 48.8482 39.4398 49.7304 39.4398 51.0023V56.0697H45.0201C46.4256 56.0697 46.796 56.5991 46.796 58.0067V63.4291H52.5403C54.5501 63.4291 54.4975 66.0053 52.6453 66.0053H2.00045C-0.056578 66.0053 -0.0960188 63.4291 2.00059 63.4291H7.73168V58.0067C7.73168 56.3397 8.25864 56.0697 10.0284 56.0697H14.9515V51.0158C14.9515 49.3344 15.2502 48.8482 16.7581 48.8482H18.1709C17.8428 47.6629 17.923 46.4961 18.1709 44.2216L20.2133 26.1409L16.7581 22.6851C14.9027 20.7388 14.0057 18.6413 15.4628 14.5801L16.7565 11.2202C17.7316 9.00912 20.1604 7.82235 22.547 7.99221C20.5772 4.39361 22.9451 -0.00923128 27.2285 -0.00927734ZM10.4253 58.7683H16.0316C17.3972 58.7683 17.6668 58.1932 17.6668 57.0074V51.5089H36.8572V57.0073C36.8572 58.355 37.2525 58.7683 38.5283 58.7683H44.0806V63.4221H10.4253V58.7683ZM27.2142 42.2566L26.343 46.6651L25.8916 48.8483H28.605L27.2142 42.2566ZM34.2876 26.0387L37.2688 23.1814C41.5362 29.5256 44.6154 32.1609 51.0274 35.6544C49.4404 36.4909 48.5776 37.7699 47.7612 38.9801C46.6233 40.6668 45.5755 42.2201 42.7826 42.2568C41.7426 42.2705 40.9752 41.9503 40.1599 41.6102C39.0891 41.1635 37.936 40.6824 35.9746 40.8782L34.2876 26.0387ZM27.2496 8.00562C28.7508 8.00562 29.9677 6.78866 29.9677 5.28748C29.9677 3.78629 28.7508 2.56934 27.2496 2.56934C25.7484 2.56934 24.5314 3.78629 24.5314 5.28748C24.5314 6.78866 25.7484 8.00562 27.2496 8.00562ZM22.7998 26.8008H31.7133L32.2212 31.977L33.8827 47.1543C34.1614 48.9608 31.3571 49.4102 30.9437 47.4509L28.6674 34.6753C28.3268 32.8955 26.1651 32.801 25.7802 34.6753L23.5932 46.972C23.1296 49.6135 20.4051 49.0792 20.6209 46.8063L22.7998 26.8008ZM31.5806 10.6912H22.9512C20.5789 10.6912 19.9182 10.821 19.051 12.8964L17.8868 15.9791C16.9976 18.1139 17.4484 19.4971 18.9297 21.0039L20.2385 22.3008V16.4082C20.2385 14.7669 22.9512 14.7361 22.9512 16.4082V24.2268H31.5806V16.4082C31.5806 14.7194 34.1564 14.784 34.1564 16.4082V22.3036L35.8548 20.6447C37.3029 19.1688 37.242 17.7842 36.6043 16.0928L35.4551 13.0098C34.7545 11.1369 33.8896 10.6912 31.5806 10.6912Z" fill="white"/>
</svg>
