<svg width="67" height="58" viewBox="0 0 67 58" fill="none" xmlns="http://www.w3.org/2000/svg">
<path fill-rule="evenodd" clip-rule="evenodd" d="M26.9 1.77438C26.3633 1.56837 26.0741 1.49768 25.3463 1.49768C22.7339 1.37838 20.1936 3.63055 20.7975 7.40888C18.1771 8.03014 16.907 10.2037 17.3955 13.1771C14.3668 13.5689 12.861 17.3138 14.5255 20.2008C11.2897 21.386 10.5433 25.1833 12.9456 27.9666L8.69697 32.2719C6.83177 31.5588 5.38429 31.6125 4.06826 32.8178L1.0394 35.8162C-0.311649 37.1643 -0.351197 39.8617 1.0394 41.4495L15.7225 56.0884C17.4174 57.7089 20.298 57.4077 22.1051 55.5812L24.3367 53.3418C25.7975 51.7642 25.7582 49.787 24.7503 48.0906L29.4397 43.404C30.3035 42.5965 31.2838 42.6561 33.2585 42.7762C34.1827 42.8323 35.3246 42.9018 36.7743 42.9018L42.127 48.2388C41.2223 49.7739 41.4842 51.8296 42.6758 53.1956L45.4158 55.9518C47.2717 57.5648 49.8512 57.3553 51.8281 55.4492L65.3011 41.9762C67.4627 39.6522 67.5544 37.256 65.5605 35.2964L63.0394 32.8077C61.3085 31.3244 59.5539 31.5339 58.0944 32.2646L53.7894 27.9609C56.5816 24.5941 55.2722 21.1111 51.7025 19.9665C52.1951 16.4234 50.4405 14.9962 48.2883 14.2206C48.699 10.9501 47.036 8.97291 44.7629 8.58087C45.5826 4.87448 42.8983 2.34733 39.6476 2.68503L31.1037 0.986816H28.2835C27.7737 0.986816 27.1364 1.39184 26.9 1.77438ZM34.5621 6.38056L36.1111 4.82341C35.7024 4.74388 35.3178 4.66857 34.9498 4.59652C32.8659 4.18851 31.3158 3.88502 28.953 3.51086C29.4585 5.47563 30.7955 6.69037 32.8909 8.06817L34.5621 6.38056ZM26.569 5.05625C27.2965 7.04495 28.2119 8.22421 31.5349 10.5418C34.8383 11.0618 32.4262 15.2805 30.2207 13.5672L24.0794 7.55145C21.9258 5.43693 25.5698 2.71692 26.569 5.05625ZM23.1961 10.5511C22.4582 9.82609 21.2722 9.8366 20.5473 10.5745C19.8223 11.3125 19.8328 12.4984 20.5707 13.2234L25.3808 17.949C26.1187 18.674 27.3047 18.6635 28.0296 17.9255C28.7546 17.1876 28.7441 16.0017 28.0062 15.2767L23.1961 10.5511ZM17.0911 16.3276C17.8161 15.5897 19.002 15.5792 19.74 16.3042L23.3824 19.8827C24.1204 20.6076 24.1309 21.7936 23.4059 22.5315C22.6809 23.2694 21.495 23.2799 20.7571 22.555L17.1146 18.9765C16.3767 18.2515 16.3661 17.0656 17.0911 16.3276ZM17.4369 23.1899C16.699 22.4649 15.513 22.4754 14.7881 23.2134C14.0631 23.9513 14.0736 25.1372 14.8115 25.8622L16.1213 27.149C16.8592 27.874 18.0452 27.8635 18.7701 27.1255C19.4951 26.3876 19.4846 25.2017 18.7467 24.4767L17.4369 23.1899ZM5.52089 35.2046C6.25274 34.4735 7.43871 34.4741 8.16984 35.2059L22.0308 49.0805C22.7619 49.8124 22.7613 50.9984 22.0295 51.7295L19.9438 53.8131C19.212 54.5442 18.026 54.5437 17.2949 53.8118L3.4339 39.9372C2.70278 39.2054 2.70336 38.0194 3.43521 37.2883L5.52089 35.2046ZM58.8331 35.1082C59.5647 34.3769 60.7507 34.3771 61.482 35.1087L63.5672 37.1947C64.2985 37.9263 64.2983 39.1122 63.5667 39.8436L49.6964 53.7088C48.9647 54.4402 47.7788 54.44 47.0474 53.7083L44.9622 51.6224C44.2309 50.8908 44.2311 49.7048 44.9627 48.9735L58.8331 35.1082ZM51.8818 29.9597L39.7504 41.9865L43.8541 46.1258L55.9854 34.0991L51.8818 29.9597ZM41.6431 8.58336L39.2829 10.93C37.927 12.2083 39.6716 14.248 41.0702 13.0366L42.6495 11.5641C44.2128 10.066 46.8811 12.5161 44.9018 14.4586L42.8034 16.5769C41.2367 18.1221 43.1737 19.9822 44.6101 18.6654L46.1574 17.219C47.8047 15.8258 50.2421 18.2632 48.4385 20.1231L46.3355 22.2201C44.8799 23.6639 46.74 25.5753 48.1262 24.4133L49.4994 23.0073C51.1914 21.3548 53.5261 24.2924 51.9042 25.9428L38.071 39.6636C37.6101 40.0301 36.6578 40.12 36.0027 40.12L31.7592 39.9773C29.5207 39.9773 28.3189 40.6125 26.964 41.9613L22.9065 46.0089L10.8784 34.0255L15.0952 29.8087C18.2881 31.6172 21.9214 29.4076 22.1199 25.8657C24.8798 25.7096 26.5993 23.7035 26.7101 21.2904C29.6779 20.9022 31.2754 19.2289 31.2754 16.7102C34.7584 16.5698 37.0033 13.0934 35.2235 9.68526L38.9977 5.97623C40.6463 4.46003 43.4556 6.62798 41.6431 8.58336Z" fill="white"/>
</svg>
