<svg width="67" height="67" viewBox="0 0 67 67" fill="none" xmlns="http://www.w3.org/2000/svg">
<path fill-rule="evenodd" clip-rule="evenodd" d="M8.52912 12.4315C10.025 10.5843 11.3043 9.40231 12.6702 8.29044C13.9184 7.27448 15.4065 7.23302 16.5464 8.0406L19.5444 10.0998C22.4063 8.37547 24.1544 7.60706 27.5995 6.7309L28.0234 3.65723C28.3806 1.8654 29.3261 0.565186 32.0305 0.565186C34.5686 0.565186 35.0944 1.35089 35.0944 3.5891V10.5935C35.0944 13.3654 34.1932 13.8803 31.8805 13.8803C6.40511 18.6558 10.4649 50.7779 31.8805 53.2866C33.9982 53.2866 35.0944 53.8173 35.0944 55.5999V64.0934C35.0944 66.0543 34.2902 66.572 31.9779 66.572C29.9794 66.572 28.5193 65.9987 28.1297 64.0074L27.4868 60.3826C24.2277 59.5138 22.4688 58.7559 19.5048 57.0399L16.8064 58.9789C15.8234 59.6855 14.2514 60.1452 13.0346 59.1236C11.0711 57.4752 10.1095 56.5131 8.52817 54.7494C7.21574 53.0525 7.6051 51.356 10.4649 48.0186C8.74303 45.0425 8.04382 43.2508 7.11861 39.9037C1.77859 39.5361 0.937233 38.7017 0.9375 34.5769V31.5901C0.9375 28.3698 2.54367 27.5354 7.10109 27.2473C7.95479 24.0027 8.66907 22.2248 10.4748 19.1467L8.66539 16.5878C7.85567 15.4096 7.36388 13.8705 8.52912 12.4315ZM18.3413 12.0695C19.1985 12.6525 19.651 12.6888 20.5567 12.149C23.0097 10.6872 24.4794 9.97624 27.4418 9.1244L27.5755 9.08597C29.1746 8.62682 29.6236 8.49788 29.8031 7.53249L30.2409 4.60069L30.2572 4.50166C30.3889 3.7027 30.5219 2.89532 31.143 2.89543L32.7643 2.89532V11.5309C4.20586 14.5415 5.55367 53.0605 32.7643 55.6226V64.272H31.0754C30.6573 64.1859 30.498 63.8074 30.2838 62.8605L29.9184 60.3987C29.6984 58.8703 29.5261 58.461 27.8273 58.0594C25.406 57.4869 23.9531 56.8615 21.2944 55.4864C21.1546 55.4141 21.0251 55.3462 20.9046 55.2831L20.894 55.2775C19.5206 54.5571 19.3058 54.4444 18.0601 55.2365L15.3838 57.1558C14.8381 57.5379 14.527 57.5429 13.9442 56.9289L10.5687 53.5604C10.0304 52.9461 10.0247 52.6182 10.5687 51.8798L12.1306 49.8622C13.0886 48.5988 13.144 47.8795 12.2791 46.5859C10.9942 44.3765 10.3272 42.8939 9.31573 39.3754C8.84259 38.0417 8.81687 38.0367 7.66104 37.8086C7.50403 37.7776 7.32565 37.7425 7.12297 37.6993L4.82391 37.2914L4.74581 37.2749C3.76548 37.0681 3.25666 36.9607 3.25666 35.3536L3.25667 31.8582C3.25667 30.4117 3.43354 30.1125 4.84212 29.8555L7.27127 29.4661L7.4541 29.426C8.70336 29.1526 8.96919 29.0944 9.31557 27.7916C10.1809 24.7144 10.8349 23.0692 12.4202 20.3045C12.9862 19.4331 13.066 18.8946 12.6661 18.2556L10.5861 15.3983C10.0247 14.6866 10.0147 14.2379 10.4494 13.7595L13.958 10.1262C14.5518 9.59123 15.0404 9.64108 15.6274 10.1262L18.3413 12.0695Z" fill="white"/>
<path fill-rule="evenodd" clip-rule="evenodd" d="M34.8283 17.0711C34.1734 16.0675 33.5266 15.8452 32.9456 15.912C9.85039 18.5664 11.5922 49.261 32.9457 51.2407C33.8705 51.3264 34.3096 50.7541 34.8279 50.0785L41.2623 50.0779C42.4758 50.0977 42.7024 50.7898 42.7024 52.5739V57.938C41.1136 58.5755 40.5316 59.6978 40.5316 61.0717C40.5316 62.8445 41.6417 64.4026 43.8364 64.4026C46.0311 64.4026 47.1781 62.5144 47.1781 61.0717C47.1781 59.4117 46.0868 58.2454 45.0095 57.938V51.5795C45.0095 49.1067 43.9509 47.8826 40.932 47.8826H35.0664V45.6982H46.9391C48.66 45.6982 48.7546 43.5104 46.9391 43.5104H35.0959V40.1468H52.3066C53.2178 40.1468 53.6589 40.5396 53.6589 41.2634V46.9841C52.4424 47.2344 51.4539 48.596 51.4539 50.0977C51.4539 51.7922 52.8395 53.4221 54.8281 53.4221C56.6219 53.4221 58.181 52.1137 58.181 50.1262C58.181 48.5204 57.1893 47.2533 55.9754 46.9841V41.1945C55.9754 39.1968 54.8442 37.9532 52.3066 37.9532H35.0959V34.7314H60.4791C60.8582 35.8683 62.1253 36.9464 63.6733 36.9464C65.1323 36.9464 66.9493 35.7359 66.9493 33.5651C66.9493 31.5564 65.397 30.2189 63.6265 30.2189C62.0496 30.2189 60.9717 31.216 60.4791 32.3963H35.0959V29.1789H51.9344C54.8442 29.1789 55.986 28.0955 55.986 25.5661V20.1718C57.2838 19.7932 58.1868 18.5072 58.1868 17.0972C58.1868 15.5947 57.0947 13.7335 54.8081 13.7335C52.6693 13.7335 51.4515 15.5191 51.4515 17.0972C51.4515 18.8665 52.745 19.8688 53.6637 20.1718V25.5661C53.6637 26.7149 52.9864 27.0036 51.9344 26.9853H35.0959V23.6525H46.9329C48.7167 23.6525 48.7167 21.4539 46.9329 21.4539H35.0959V19.2798H40.9448C43.8942 19.2798 45.0095 17.902 45.0095 15.5739V9.20071C46.0501 8.80534 47.2131 7.72031 47.2131 6.03122C47.2131 4.34213 45.8043 2.76933 43.8343 2.76929C41.7193 2.76929 40.4923 4.37996 40.4923 6.03122C40.4923 7.87866 41.6815 8.80534 42.7024 9.21979V14.5683C42.7718 16.5727 42.7024 17.0972 41.2623 17.0711H34.8283ZM43.8546 62.1858C44.4565 62.1858 44.9445 61.6978 44.9445 61.0959C44.9445 60.494 44.4565 60.006 43.8546 60.006C43.2526 60.006 42.7647 60.494 42.7647 61.0959C42.7647 61.6978 43.2526 62.1858 43.8546 62.1858ZM55.9147 50.1035C55.9147 50.7054 55.4267 51.1934 54.8248 51.1934C54.2228 51.1934 53.7349 50.7054 53.7349 50.1035C53.7349 49.5015 54.2228 49.0135 54.8248 49.0135C55.4267 49.0135 55.9147 49.5015 55.9147 50.1035ZM63.6325 34.6771C64.2344 34.6771 64.7224 34.1891 64.7224 33.5872C64.7224 32.9853 64.2344 32.4973 63.6325 32.4973C63.0305 32.4973 62.5426 32.9853 62.5426 33.5872C62.5426 34.1891 63.0305 34.6771 63.6325 34.6771ZM55.9325 17.0968C55.9325 17.6988 55.4446 18.1867 54.8426 18.1867C54.2407 18.1867 53.7527 17.6988 53.7527 17.0968C53.7527 16.4949 54.2407 16.0069 54.8426 16.0069C55.4446 16.0069 55.9325 16.4949 55.9325 17.0968ZM43.8521 7.17212C44.454 7.17212 44.942 6.68416 44.942 6.08221C44.942 5.48027 44.454 4.99231 43.8521 4.99231C43.2502 4.99231 42.7622 5.48027 42.7622 6.08221C42.7622 6.68416 43.2502 7.17212 43.8521 7.17212ZM32.7719 48.7842L32.7719 18.2342C15.758 19.2821 12.1654 45.662 32.7719 48.7842Z" fill="white"/>
</svg>
