<svg width="313" height="103" viewBox="0 0 313 103" fill="none" xmlns="http://www.w3.org/2000/svg">
<path d="M128.544 58.092C119.6 58.092 110.032 55.44 105.04 51.592L109.72 43.532C114.036 46.964 122.096 49.46 129.22 49.46C134.472 49.46 137.8 48.212 137.8 46.288C137.8 44.676 135.408 43.688 129.74 43.064L122.876 42.284C111.124 41.036 106.08 37.76 106.08 31.156C106.08 23.148 115.128 18.624 128.388 18.624C136.24 18.624 143.624 20.496 148.2 23.46L144.404 31.26C140.348 28.556 134.212 26.84 128.492 26.892C123.188 26.944 119.288 28.192 119.236 30.168C119.236 31.572 121.316 32.456 126.1 32.924L133.016 33.652C145.6 34.952 151.008 38.384 151.008 45.144C151.06 52.84 142.22 58.092 128.544 58.092ZM154.639 57V19.768H168.211V32.976H188.751V19.768H202.323V57H188.751V42.18H168.211V57H154.639ZM233.866 58.3C217.538 58.3 206.618 50.344 206.618 38.384C206.618 26.424 217.538 18.468 233.866 18.468C250.246 18.468 261.166 26.424 261.166 38.384C261.166 50.344 250.246 58.3 233.866 58.3ZM233.866 48.732C242.03 48.732 247.594 44.572 247.594 38.384C247.594 32.196 242.03 28.036 233.866 28.036C225.702 28.036 220.19 32.196 220.19 38.384C220.19 44.572 225.702 48.732 233.866 48.732ZM265.444 57V19.768H295.448C306.004 19.768 311.88 24.448 311.88 32.872C311.828 41.088 305.952 45.612 295.344 45.612H279.016V57H265.444ZM279.016 37.968H290.924C295.656 37.968 298.256 36.096 298.256 32.664C298.256 29.284 295.656 27.412 290.924 27.412H279.016V37.968Z" fill="white"/>
<path d="M106.86 86V64.145H116.873C121.213 64.145 123.693 66.284 123.693 70.035C123.693 72.422 122.422 74.096 120.252 74.685V74.716C122.887 75.274 124.375 77.134 124.375 79.893C124.375 83.768 121.647 86 116.904 86H106.86ZM109.433 73.6H116.563C119.477 73.6 121.151 72.298 121.151 70.035C121.151 67.772 119.477 66.439 116.563 66.439H109.433V73.6ZM109.433 83.706H116.563C119.88 83.706 121.833 82.28 121.833 79.769C121.833 77.32 119.88 75.894 116.563 75.894H109.433V83.706ZM125.018 86L133.512 64.145H136.612L145.044 86H142.316L140.332 80.761H129.792L127.777 86H125.018ZM130.536 78.467H139.557L135.093 66.687H135.031L130.536 78.467ZM163.024 86.62C161.288 86.62 160.296 85.566 159.862 84.078L158.529 79.49C158.064 77.878 156.793 76.762 155.305 76.762H149.787V86H147.214V64.145H157.01C161.536 64.145 164.76 66.749 164.76 70.407C164.76 73.445 162.497 75.77 158.839 76.266V76.297C160.017 76.886 160.761 77.94 161.133 79.242L162.218 83.179C162.404 83.923 162.838 84.45 163.52 84.45C164.233 84.45 164.946 83.892 165.442 83.024L166.744 84.543C165.845 85.783 164.543 86.62 163.024 86.62ZM149.787 74.468H157.01C160.048 74.468 162.187 72.825 162.187 70.469C162.187 68.113 160.048 66.439 157.01 66.439H149.787V74.468ZM168.618 86V64.145H178.631C182.971 64.145 185.451 66.284 185.451 70.035C185.451 72.422 184.18 74.096 182.01 74.685V74.716C184.645 75.274 186.133 77.134 186.133 79.893C186.133 83.768 183.405 86 178.662 86H168.618ZM171.191 73.6H178.321C181.235 73.6 182.909 72.298 182.909 70.035C182.909 67.772 181.235 66.439 178.321 66.439H171.191V73.6ZM171.191 83.706H178.321C181.638 83.706 183.591 82.28 183.591 79.769C183.591 77.32 181.638 75.894 178.321 75.894H171.191V83.706ZM188.931 86V64.145H203.873V66.439H191.442V73.6H202.633V75.832H191.442V83.706H204.183V86H188.931ZM222.633 86.62C220.897 86.62 219.905 85.566 219.471 84.078L218.138 79.49C217.673 77.878 216.402 76.762 214.914 76.762H209.396V86H206.823V64.145H216.619C221.145 64.145 224.369 66.749 224.369 70.407C224.369 73.445 222.106 75.77 218.448 76.266V76.297C219.626 76.886 220.37 77.94 220.742 79.242L221.827 83.179C222.013 83.923 222.447 84.45 223.129 84.45C223.842 84.45 224.555 83.892 225.051 83.024L226.353 84.543C225.454 85.783 224.152 86.62 222.633 86.62ZM209.396 74.468H216.619C219.657 74.468 221.796 72.825 221.796 70.469C221.796 68.113 219.657 66.439 216.619 66.439H209.396V74.468ZM236.441 86.775C231.388 86.775 227.482 83.613 226.986 79.118L229.528 78.653C229.745 82.063 232.628 84.481 236.441 84.481C239.882 84.481 241.99 82.652 241.99 80.265C241.99 78.343 240.626 77.196 237.433 76.452L233.899 75.646C230.024 74.747 228.195 72.98 228.195 70.066C228.195 66.129 231.14 63.37 235.604 63.37C239.603 63.37 242.641 65.881 243.261 69.539L240.812 70.159C240.502 67.493 238.425 65.664 235.635 65.664C232.659 65.664 230.768 67.369 230.768 69.632C230.768 71.492 231.946 72.546 234.705 73.166L238.239 73.972C242.455 74.902 244.563 76.886 244.563 79.862C244.563 83.861 241.37 86.775 236.441 86.775ZM247.056 86V64.145H249.629V73.476H261.719V64.145H264.292V86H261.719V75.77H249.629V86H247.056ZM278.98 86.775C271.881 86.775 267.231 82.125 267.231 75.088C267.231 68.02 271.881 63.37 278.98 63.37C286.11 63.37 290.76 68.02 290.76 75.088C290.76 82.125 286.11 86.775 278.98 86.775ZM278.98 84.481C284.529 84.481 288.156 80.73 288.156 75.088C288.156 69.415 284.529 65.664 278.98 65.664C273.431 65.664 269.804 69.415 269.804 75.088C269.804 80.73 273.431 84.481 278.98 84.481ZM293.708 86V64.145H302.667C307.348 64.145 310.603 66.904 310.603 70.779C310.603 74.654 307.317 77.382 302.667 77.382H296.219V86H293.708ZM296.219 75.057H302.667C305.798 75.057 308.03 73.29 308.03 70.779C308.03 68.237 305.829 66.439 302.667 66.439H296.219V75.057Z" fill="white"/>
<path d="M26 1.00002H27C55.0779 0.0509471 63.0491 6.93085 67 18H86L82.5 26H68.0014C68.793 36.8524 65.5337 43.8367 59.9979 48.005H64.0224C94.4922 48.005 92.6972 84.5495 69.0351 85.0028H68.0387C65.8559 93.6738 56.225 102.028 43.9363 102.028C41.373 102.028 28.5568 102.006 25.9939 102.006V88.007H30.0054V98.01H43.9363C54.1638 98.01 64.0116 89.2123 64.0116 78.099V78.0529C64.0116 70.7989 64.0116 66.1018 58.9051 58.9871H62.9051C66.0329 62.2355 68.0387 69.7687 68.0387 77.0137C82.0393 77.0137 84.4591 56.0844 67.0453 56.0844C56.4796 56.0844 30 55.9112 30 55.9112L29.956 76.9827C43.0386 76.9827 48.7713 77.0137 61.8539 77.0137C61.7099 80.143 61.322 81.888 60.0075 85.0028C37.9429 85.0028 26.1492 85.0453 4.08454 85.0453C5.36025 81.8815 6.02363 80.0955 6.99317 76.9827H26V29.9871H30V48.005C58.9051 48.005 62.9051 44.5557 64 27C64 14.5 58.6066 4.1638 30 5.00002V18H59.5C60.6552 21.4492 60.8656 22.8654 61 26C61 26 32.0437 26.0389 21.0054 26.0389C5.04976 26.0389 5.05758 48.005 20.9544 48.005H22.9051V55.9112H19.9904C-5.38693 55.9112 -5.64638 18 20.8486 18H26V1.00002Z" fill="#D1A505"/>
</svg>
